<svg xmlns="http://www.w3.org/2000/svg" xmlns:xlink="http://www.w3.org/1999/xlink" version="1.1" width="64" height="64" fill="#38b348" viewBox="0 0 600 750" enable-background="new 55 0 600 900" xml:space="preserve"><path d="M435.198,441.981c1.738-33.793-8.209-85.461-64.236-142.431l-2.077-2.114l-2.632,1.368  c-18.813,9.785-34.125,18.19-50.167,30.727l-24.846-24.849c-5.265-5.267-12.62-9.663-21.771-8.042L166.262,193.438l6.016-6.019  c4.143-4.14,6.424-9.645,6.424-15.499s-2.281-11.359-6.424-15.499c-4.14-4.14-9.642-6.421-15.496-6.421s-11.359,2.281-15.502,6.421  l-43.03,43.031c-4.143,4.14-6.424,9.645-6.424,15.502c0,5.854,2.278,11.359,6.418,15.499c4.143,4.14,9.647,6.418,15.502,6.418  s11.359-2.279,15.502-6.418l6.016-6.017l103.208,103.208c-1.623,9.154,2.774,16.504,8.037,21.769l24.846,24.849  c-12.536,16.044-20.941,31.356-30.724,50.17l-1.368,2.628l2.114,2.078c4.675,4.599,9.311,8.859,13.901,12.844H128.383V450h379.792  v-8.019H435.198z M123.577,224.781c-2.626,2.626-6.118,4.072-9.832,4.072s-7.207-1.446-9.833-4.069  c-2.623-2.625-4.068-6.115-4.068-9.83s1.448-7.204,4.074-9.83l43.031-43.033c2.625-2.626,6.117-4.072,9.832-4.072  c3.712,0,7.201,1.446,9.827,4.072c2.628,2.625,4.074,6.118,4.074,9.83c0,3.712-1.446,7.204-4.074,9.83L123.577,224.781z   M140.933,218.767l19.659-19.66l100.569,100.566c-3.506,1.9-7.204,4.644-11.109,8.551c-3.907,3.907-6.65,7.606-8.551,11.111  L140.933,218.767z M252.177,343.744c-6.121-6.124-11.252-15.053,3.545-29.85c14.797-14.797,23.726-9.668,29.85-3.542l24.259,24.258  c-5.591,4.698-11.326,9.942-17.389,16.006c-6.063,6.063-11.308,11.798-16.006,17.389L252.177,343.744z M427.261,441.981H267.757  c-6.123-4.957-12.336-10.412-18.637-16.493c12.892-24.664,23.753-43.305,46.185-66.34l40.569,40.564l5.669-5.669l-40.569-40.564  c23.032-22.429,41.671-33.29,66.34-46.184C419.907,361.78,428.991,410.487,427.261,441.981z"/><text x="0" y="615" fill="#fff" font-size="5px" font-weight="bold" font-family="'Helvetica Neue', Helvetica, Arial-Unicode, Arial, Sans-serif">Created by Mike M.</text><text x="0" y="620" fill="#fff" font-size="5px" font-weight="bold" font-family="'Helvetica Neue', Helvetica, Arial-Unicode, Arial, Sans-serif">from the Noun Project</text></svg>