<svg xmlns="http://www.w3.org/2000/svg" xmlns:xlink="http://www.w3.org/1999/xlink" version="1.1" x="0px" y="0px" fill="#38b348" viewBox="0 0 91 113.75" enable-background="new 0 0 91 91" xml:space="preserve"><g><path d="M63.704,73.789c0.068,0.008,0.136,0.012,0.205,0.012c0.847,0,1.577-0.633,1.683-1.49c0.417-3.476-1.503-12.5-1.723-13.519   l-0.111-0.335c-1.533-3.412-4.004-6.328-7.069-8.438c3.823-3.298,6.128-8.154,6.128-13.369c0-9.723-7.91-17.635-17.633-17.635   c-9.725,0-17.637,7.912-17.637,17.635c0,5.271,2.345,10.094,6.141,13.365c-2.839,1.953-5.183,4.611-6.723,7.699l-0.128,0.253   l-0.035,0.281c-0.054,0.395-1.281,9.704-1.281,13.709c0,0.938,0.76,1.695,1.695,1.695c0.937,0,1.696-0.757,1.696-1.695   c0-3.407,1.003-11.369,1.212-12.979c1.486-2.86,3.82-5.231,6.609-6.846c1.246,0.68,2.586,1.22,4.008,1.588   c0.143,0.039,0.288,0.056,0.429,0.056c0.753,0,1.44-0.507,1.639-1.271c0.233-0.906-0.309-1.831-1.217-2.065   c-6.273-1.628-10.654-7.299-10.654-13.791c0-7.854,6.392-14.244,14.246-14.244c7.855,0,14.245,6.39,14.245,14.244   c0,5.625-3.319,10.739-8.459,13.023c-0.854,0.381-1.24,1.383-0.861,2.239c0.383,0.854,1.387,1.244,2.239,0.861   c0.451-0.203,0.89-0.427,1.32-0.66c3.021,1.753,5.463,4.402,6.928,7.574c0.587,2.748,1.92,9.802,1.63,12.215   C62.112,72.833,62.774,73.678,63.704,73.789z"/><path d="M45.246,43.158c1.571,0,3.311-0.441,5.03-1.675c0.76-0.546,0.936-1.604,0.39-2.366c-0.545-0.76-1.601-0.936-2.366-0.388   c-3.107,2.227-5.87,0.271-6.18,0.037c-0.734-0.57-1.794-0.44-2.372,0.292c-0.579,0.737-0.451,1.801,0.286,2.38   C41.039,42.23,42.965,43.158,45.246,43.158z"/><path d="M42.775,33.203c0-1.088-0.886-1.976-1.976-1.976c-1.088,0-1.976,0.888-1.976,1.976s0.888,1.974,1.976,1.974   C41.889,35.177,42.775,34.292,42.775,33.203z"/><path d="M51.542,33.203c0-1.088-0.884-1.976-1.972-1.976c-1.091,0-1.979,0.888-1.979,1.976s0.888,1.974,1.979,1.974   C50.658,35.177,51.542,34.292,51.542,33.203z"/><path d="M39.497,70.752l4.662,4.566c0.329,0.322,0.757,0.482,1.186,0.482c0.426,0,0.856-0.16,1.186-0.482l4.668-4.566   c0.449-0.439,0.618-1.091,0.44-1.692l-4.51-15.225c-0.212-0.714-0.863-1.209-1.608-1.215c0,0-0.013,0-0.017,0   c-0.738,0-1.393,0.478-1.616,1.184L39.067,69.03C38.875,69.639,39.042,70.305,39.497,70.752z M45.448,60.102l2.648,8.941   l-2.75,2.691l-2.733-2.675L45.448,60.102z"/><path d="M35.533,62.175c-0.348-0.868-1.335-1.289-2.202-0.941c-0.869,0.348-1.293,1.343-0.945,2.215   c0.521,1.303,1.003,2.793,1.078,3.289c-0.086,0.593-0.169,2.392,0.008,8.98c0.025,0.918,0.78,1.729,1.695,1.729   c0.017,0,0.031,0,0.048,0c0.935,0,1.674-0.886,1.649-1.821c-0.097-3.575-0.147-7.731-0.097-8.21   C36.898,66.994,37.145,66.208,35.533,62.175z"/><path d="M57.681,61.233c-0.869-0.348-1.855,0.088-2.203,0.956c-1.611,4.035-1.363,4.842-1.272,5.101   c0.086,0.64,0.041,4.759-0.058,8.334c-0.025,0.938,0.714,1.823,1.648,1.823c0.017,0,0.031,0,0.031,0   c0.931,0,1.686-0.81,1.711-1.729c0.176-6.589,0.096-8.424,0.008-9.018c0.075-0.492,0.558-1.961,1.078-3.267   C58.972,62.562,58.55,61.581,57.681,61.233z"/><path d="M76.491,15.117c-6.898,0-12.512,5.611-12.512,12.508c0,3.499,1.463,6.718,3.858,9.021c-1.75,1.331-3.209,3.047-4.196,5.022   l-0.135,0.271l-0.033,0.298c-0.034,0.313-0.868,7.693-0.868,10.431c0,0.936,0.76,1.694,1.696,1.694s1.694-0.759,1.694-1.694   c0-2.249,0.655-8.306,0.813-9.741c0.925-1.729,2.331-3.172,3.998-4.192c0.803,0.409,1.635,0.765,2.533,1   c0.142,0.039,0.285,0.056,0.427,0.056c0.754,0,1.44-0.507,1.64-1.27c0.233-0.906-0.308-1.831-1.215-2.065   c-4.016-1.042-6.822-4.674-6.822-8.829c0-5.026,4.091-9.116,9.121-9.116c5.026,0,9.117,4.09,9.117,9.116   c0,3.603-2.125,6.875-5.416,8.336c-0.854,0.381-1.238,1.382-0.859,2.239c0.383,0.854,1.384,1.241,2.237,0.86   c0.212-0.094,0.397-0.22,0.602-0.323c1.829,1.117,3.326,2.727,4.243,4.668c0.527,2.889,1.264,7.755,1.095,9.161   c-0.109,0.93,0.552,1.771,1.48,1.886c0.069,0.008,0.14,0.011,0.206,0.011c0.846,0,1.576-0.631,1.682-1.492   c0.283-2.373-0.923-9.071-1.167-10.392l-0.122-0.384c-0.99-2.208-2.536-4.123-4.453-5.571c2.409-2.319,3.863-5.539,3.863-9.001   C88.999,20.728,83.388,15.117,76.491,15.117z"/><path d="M76.544,32.586c1.162,0,2.449-0.329,3.72-1.24c0.759-0.544,0.935-1.604,0.389-2.365c-0.544-0.759-1.601-0.938-2.364-0.389   c-1.777,1.271-3.359,0.174-3.547,0.033c-0.736-0.565-1.792-0.435-2.368,0.296c-0.578,0.737-0.448,1.805,0.287,2.382   C73.41,31.893,74.846,32.586,76.544,32.586z"/><path d="M75.401,25.289c0-1.043-0.845-1.887-1.884-1.887c-1.04,0-1.887,0.844-1.887,1.887c0,1.037,0.847,1.883,1.887,1.883   C74.557,27.171,75.401,26.325,75.401,25.289z"/><path d="M81.35,25.289c0-1.043-0.845-1.887-1.883-1.887c-1.041,0-1.887,0.844-1.887,1.887c0,1.037,0.846,1.883,1.887,1.883   C80.505,27.171,81.35,26.325,81.35,25.289z"/><path d="M70.452,44.742c-0.348-0.87-1.335-1.284-2.204-0.935c-0.869,0.348-1.293,1.351-0.945,2.22   c0.314,0.788,0.618,1.732,0.691,2.08c-0.066,0.657-0.106,2.582,0.008,8.889c0.017,0.927,0.774,1.805,1.696,1.805   c0,0,0.019,0,0.031,0c0.935,0,1.68-0.928,1.663-1.862c-0.064-3.536-0.097-7.648-0.048-8.437   C71.453,48.078,71.472,47.298,70.452,44.742z"/><path d="M85.171,43.808c-0.866-0.35-1.855,0.093-2.203,0.962c-1.021,2.553-1.004,3.371-0.896,3.797   c0.05,0.781,0.019,4.829-0.046,8.367c-0.017,0.938,0.729,1.867,1.663,1.867c0.013,0,0.021,0,0.021,0   c0.935,0,1.689-0.876,1.706-1.801c0.115-6.298,0.073-8.297,0.011-8.955c0.071-0.352,0.375-1.256,0.69-2.044   C86.465,45.131,86.041,44.155,85.171,43.808z"/><path d="M1.287,41.67l-0.134,0.269l-0.033,0.298C1.083,42.55,0.25,49.93,0.25,52.667c0,0.936,0.759,1.694,1.696,1.694   c0.936,0,1.695-0.759,1.695-1.694c0-2.249,0.653-8.306,0.813-9.741c0.92-1.729,2.328-3.174,3.998-4.192   c0.801,0.409,1.632,0.765,2.532,1c0.141,0.039,0.284,0.056,0.427,0.056c0.753,0,1.44-0.507,1.639-1.27   c0.235-0.906-0.309-1.831-1.214-2.065c-4.017-1.042-6.82-4.674-6.82-8.829c0-5.026,4.091-9.116,9.121-9.116   c5.025,0,9.114,4.09,9.114,9.116c0,3.603-2.125,6.875-5.413,8.336c-0.854,0.381-1.24,1.382-0.861,2.239   c0.38,0.854,1.386,1.241,2.239,0.86c0.211-0.094,0.397-0.22,0.6-0.323c1.829,1.117,3.327,2.727,4.242,4.668   c0.53,2.889,1.266,7.755,1.096,9.161c-0.109,0.93,0.553,1.771,1.482,1.886c0.068,0.008,0.138,0.011,0.205,0.011   c0.846,0,1.577-0.631,1.682-1.492c0.284-2.373-0.924-9.071-1.169-10.392l-0.122-0.384c-0.992-2.207-2.535-4.121-4.453-5.571   c2.408-2.319,3.863-5.539,3.863-9.001c0-6.896-5.609-12.508-12.505-12.508c-6.898,0-12.512,5.611-12.512,12.508   c0,3.499,1.461,6.718,3.856,9.019C3.73,37.977,2.272,39.695,1.287,41.67z"/><path d="M14.186,32.586c1.163,0,2.452-0.329,3.72-1.24c0.762-0.544,0.938-1.604,0.391-2.362c-0.544-0.76-1.605-0.94-2.363-0.392   c-1.773,1.269-3.36,0.176-3.548,0.036c-0.738-0.569-1.792-0.437-2.367,0.293c-0.58,0.737-0.449,1.802,0.285,2.382   C11.053,31.893,12.491,32.586,14.186,32.586z"/><path d="M13.045,25.289c0-1.043-0.844-1.887-1.885-1.887c-1.039,0-1.885,0.844-1.885,1.887c0,1.037,0.846,1.883,1.885,1.883   C12.202,27.171,13.045,26.325,13.045,25.289z"/><path d="M18.992,25.289c0-1.043-0.844-1.887-1.881-1.887c-1.041,0-1.887,0.844-1.887,1.887c0,1.037,0.847,1.883,1.887,1.883   C18.148,27.171,18.992,26.325,18.992,25.289z"/><path d="M8.096,44.744c-0.348-0.868-1.335-1.286-2.202-0.937c-0.869,0.346-1.295,1.349-0.948,2.218   c0.315,0.79,0.619,1.734,0.689,2.086c-0.064,0.658-0.104,2.587,0.01,8.885c0.016,0.927,0.771,1.805,1.694,1.805   c0.011,0,0.019,0,0.029,0c0.938,0,1.682-0.928,1.665-1.862c-0.062-3.541-0.095-7.651-0.043-8.437   C9.098,48.078,9.116,47.304,8.096,44.744z"/><path d="M22.814,43.808c-0.867-0.35-1.856,0.093-2.204,0.962c-1.024,2.565-1.001,3.379-0.894,3.799   c0.05,0.79,0.017,4.834-0.045,8.37c-0.017,0.933,0.728,1.862,1.666,1.862h0.029c0.923,0,1.678-0.878,1.694-1.803   c0.114-6.293,0.075-8.291,0.008-8.953c0.07-0.35,0.376-1.254,0.691-2.044C24.107,45.131,23.683,44.155,22.814,43.808z"/></g><text x="0" y="106" fill="#fff" font-size="5px" font-weight="bold" font-family="'Helvetica Neue', Helvetica, Arial-Unicode, Arial, Sans-serif">Created by BomSymbols</text><text x="0" y="111" fill="#fff" font-size="5px" font-weight="bold" font-family="'Helvetica Neue', Helvetica, Arial-Unicode, Arial, Sans-serif">from the Noun Project</text></svg>